<svg width="315" height="63" viewBox="0 0 315 63" fill="none" xmlns="http://www.w3.org/2000/svg">
<path d="M32.2796 59.6188C37.5824 59.5003 31.1442 59.3817 31.9365 59.2632C30.5203 59.2944 27.5071 59.2757 28.9295 59.3693C28.237 59.3069 27.3636 59.2819 26.3966 59.2819C26.1533 59.2819 25.91 59.2819 25.6604 59.2819C25.4234 59.2695 25.1863 59.2632 24.9492 59.2507C24.4689 59.2383 23.9698 59.2195 23.4769 59.2071C22.9841 59.1634 22.4912 59.0823 22.0046 59.0199C21.518 58.9513 21.0377 58.9076 20.5885 58.7704C19.6901 58.5333 18.8541 58.3524 18.2241 58.028C18.0993 58.0093 19.609 58.6518 17.7562 58.0342C17.413 57.9094 17.1136 57.8034 16.8578 57.7098C16.602 57.61 16.3961 57.4915 16.209 57.3979C15.8471 57.2107 15.5914 57.0797 15.3917 56.9612C14.9925 56.7366 14.7866 56.6056 14.3 56.2625C14.1066 56.1626 13.726 55.9505 13.2644 55.6885C13.1521 55.6199 13.0273 55.5575 12.9088 55.4826C12.7965 55.4015 12.6779 55.3142 12.5532 55.2331C12.3161 55.0584 12.0728 54.8837 11.8357 54.7153C11.5987 54.5468 11.3741 54.3784 11.1682 54.2287C10.9686 54.0727 10.8064 53.9105 10.6691 53.792C10.3946 53.5424 10.2511 53.4114 10.3385 53.4738C8.85369 52.2074 11.7172 55.0584 9.62103 53.2991C8.17368 52.12 6.58284 50.0925 5.5098 48.1835C4.87347 47.0231 5.23531 47.5783 5.82797 48.5328C6.37073 49.5185 7.39386 50.7413 7.7245 51.1718C6.1399 49.2628 4.87971 47.0917 3.96263 44.7834C3.31382 42.6873 4.35566 45.688 5.40375 47.6095C5.09182 46.942 4.77365 46.2121 4.43053 45.5071C4.16227 44.771 3.89401 44.0411 3.63199 43.3735C3.44483 42.6873 3.25767 42.0634 3.10171 41.5581C2.92079 41.059 2.87712 40.6535 2.79602 40.4476C2.67748 39.5243 2.534 38.8256 2.534 38.1206C2.52152 37.7713 2.5028 37.4282 2.49033 37.0601C2.49033 36.8729 2.47785 36.6858 2.47161 36.4861C2.47161 36.2803 2.48409 36.0619 2.49033 35.8311C2.51528 36.7669 2.65253 37.1287 2.73987 37.6652C2.78978 37.9272 2.83969 38.2205 2.8896 38.6135C2.92703 39.0065 3.06428 39.4931 3.16409 40.1544C3.30134 41.2524 3.45107 41.6829 3.45107 41.8014C3.46355 41.9199 3.38244 41.7078 3.30134 41.477C3.20776 41.2462 3.1329 40.9966 3.12666 41.0278C3.09547 41.0652 3.17033 41.3897 3.40116 42.313L3.61951 42.5875C3.74428 43.3922 4.05621 44.0598 4.31823 44.7523C4.5553 45.4572 4.96081 46.106 5.32889 46.8921C5.71568 47.7842 5.19164 46.7236 4.89218 46.1497C6.23972 48.982 7.74946 51.047 9.50874 52.6316C8.07386 51.0844 6.47679 48.9695 5.40375 46.8858C5.14797 46.3618 4.89842 45.8502 4.66759 45.3699C4.48667 44.8645 4.31199 44.3904 4.16227 43.9599C4.08741 43.7416 4.01254 43.5357 3.94392 43.3423C3.88153 43.1489 3.85034 42.9555 3.80667 42.7809C3.73181 42.4315 3.66942 42.1383 3.63199 41.9137C3.54465 41.5768 3.41988 41.2462 3.36373 40.903L3.18281 39.8737L2.99565 38.8443L2.92079 37.7962C2.78354 36.4425 2.80226 34.8766 2.75235 33.398C2.68372 33.398 2.57767 36.5173 2.48409 33.9844C2.65253 32.9426 2.72739 30.2912 2.75859 26.8288C2.67125 27.4714 2.60262 26.0614 2.65877 24.8387C2.66501 24.2086 2.67748 23.5972 2.73363 23.2478C2.76482 22.8922 2.75235 22.7987 2.65253 23.1979C2.63381 23.3913 2.60886 23.566 2.59638 23.7344C2.59014 23.9029 2.5839 24.0589 2.57767 24.2023C2.55895 24.4956 2.54023 24.7389 2.51528 24.9447C2.46537 25.3565 2.40922 25.5998 2.39675 25.7058C2.55895 22.5117 2.22831 25.2629 2.35308 23.5036C2.78354 20.5964 2.94574 20.6838 2.92703 20.7524C2.93327 20.7898 2.9395 20.8273 3.03932 20.5153C3.08299 20.3594 3.15786 20.1098 3.26391 19.7293C3.35125 19.3425 3.53841 18.8496 3.80043 18.1821C3.39492 19.3175 2.73987 22.3557 2.75235 25.4937C2.80226 25.3877 2.82721 24.6016 2.8896 23.6908C2.95822 23.2354 3.03932 22.7487 3.10795 22.2933C3.17657 21.8379 3.25143 21.4137 3.37621 21.108C3.22648 21.5447 3.19529 21.6944 3.17657 21.6819C3.15786 21.6695 3.15786 21.4948 3.19529 21.3139C3.25143 20.952 3.3263 20.5528 3.11419 21.2889C3.55713 19.043 4.38686 16.6724 5.64705 14.3766C6.91349 12.087 8.65405 9.89101 10.8126 8.07558C10.6941 8.27522 10.2075 8.78055 9.56489 9.41064C9.228 9.7101 8.92855 10.1156 8.59167 10.4962C8.2735 10.8954 7.88671 11.2635 7.61221 11.6877C6.38945 13.3035 5.65953 14.832 6.22724 14.1582C6.39568 13.865 6.54541 13.6092 6.67642 13.3846C6.82615 13.1663 6.95716 12.9791 7.06945 12.8107C7.30028 12.4676 7.47496 12.1993 7.64964 11.9435C7.96157 11.4132 8.34836 11.0327 9.07828 10.2217C9.39645 9.89101 9.90177 9.50422 10.4508 9.00513C10.981 8.48733 11.686 7.98824 12.4097 7.43301C12.7653 7.1398 13.1646 6.89649 13.5763 6.64695C13.988 6.3974 14.3936 6.12914 14.8115 5.8796C15.2482 5.66125 15.6849 5.44914 16.1216 5.23703C16.34 5.13097 16.5521 5.02491 16.7642 4.9251C16.9888 4.84399 17.2072 4.76289 17.4255 4.68179C17.1635 4.76913 16.9015 4.83776 16.6457 4.93133L15.8908 5.2495C16.209 5.09354 16.5708 4.85023 17.02 4.70675C17.4629 4.54454 17.9433 4.36986 18.4299 4.18894C18.9103 3.98931 19.4343 3.91444 19.9147 3.7772C20.4013 3.67114 20.8505 3.52141 21.2622 3.4715C21.125 3.49646 20.9877 3.54013 20.8505 3.59004C21.3683 3.44655 21.9048 3.38416 22.4351 3.27811C22.6846 3.24692 22.747 3.24692 22.7408 3.25939C22.9591 3.22196 23.2212 3.1471 23.5206 3.13462C23.8201 3.11591 24.1569 3.09719 24.525 3.07224C24.8931 3.05352 25.2799 3.02857 25.6979 3.00985C26.1346 3.00985 26.59 3.00985 27.0641 3.00985C28.9544 3.00985 31.0506 3.02233 32.8535 2.99737C32.8535 2.86636 29.2788 2.99737 27.557 2.97866C27.3199 2.97242 26.3716 2.94122 25.6792 2.91627C25.0241 2.91627 24.6124 2.90379 25.3797 2.82269C29.8278 2.78526 32.9721 2.65425 38.0316 2.65425L36.422 2.61682C38.0316 2.52324 40.2213 2.57315 42.6419 2.56691C47.0339 2.66049 39.4165 2.74783 42.0742 2.82893C40.3523 2.94746 37.3453 2.81645 36.8899 2.97866L39.6536 3.15958C41.9619 3.04728 44.5072 3.21572 46.1293 3.19077L44.3887 3.10967C44.7318 2.96618 46.3414 3.07224 47.1586 3.09719L45.992 2.89132C43.4654 2.85388 41.7311 3.04104 39.8907 2.91627C44.3825 2.84765 43.3469 2.6792 48.7557 2.6792C48.999 2.76031 47.7139 2.7104 47.1524 2.77278C48.999 2.82893 50.9455 2.66049 53.9462 2.72911C52.2306 2.77902 49.4544 2.86012 51.6504 2.97242L53.26 2.81645C54.6449 2.84141 54.0772 2.90379 54.6449 2.91003C56.6101 2.94123 54.1895 2.74783 57.3026 2.78526C57.7642 2.81645 58.7998 2.85388 58.3444 2.88508C61.9191 2.88508 60.06 2.83517 63.4039 2.76031C60.4156 2.76031 60.2971 2.52324 63.4039 2.49828C67.7834 2.52324 70.7717 2.39223 73.7849 2.59186L75.7439 2.49205C74.4837 2.64177 78.52 2.54196 79.905 2.56691C80.3666 2.72911 73.3295 2.56691 73.3295 2.82893C76.2117 2.85388 74.9515 2.93499 74.0282 3.00361C77.1475 2.97866 75.1824 2.81645 76.5611 2.7104C76.5611 2.72911 76.898 2.73535 77.3659 2.74159C77.8338 2.74159 78.4389 2.75407 78.9879 2.76031C80.0859 2.77278 80.9531 2.79774 80.0298 2.8726C82.6812 2.88508 83.1366 2.71664 85.0955 2.74783C84.8023 2.81021 84.4592 2.89755 84.6463 2.97866C84.8771 2.92251 87.3851 2.99113 87.8654 2.99737C87.41 2.96618 88.7825 2.86012 86.4805 2.90379C87.0544 2.77902 91.9018 2.90379 91.777 2.7915C92.0141 2.94123 96.7367 2.82269 99.1573 2.88508C98.9202 2.54195 94.6717 3.01609 93.8545 2.73535C97.0736 2.61682 104.691 2.72287 109.881 2.57315C114.373 2.64177 109.881 2.70416 110.798 2.83517C106.656 2.89132 105.614 2.7915 102.033 2.85388C105.957 2.91627 112.408 2.87884 115.29 2.77278C119.564 2.76031 120.038 3.11591 125.222 3.02856C124.53 2.91627 124.648 2.89132 123.026 2.84765C124.411 2.81021 126.027 2.84765 127.524 2.84765C128.441 2.77902 125.216 2.76031 127.287 2.69792C128.098 2.71664 129.826 2.73535 129.483 2.81021L129.14 2.82269C134.093 2.72287 132.721 3.09095 136.982 2.87884C136.639 2.82269 135.715 2.89132 134.674 2.86012C133.869 2.77278 136.508 2.65425 138.479 2.61682C138.13 2.69168 140.207 2.6293 141.586 2.65425C142.509 2.77902 138.124 2.69168 137.437 2.77902L141.249 2.79774L140.444 2.77902L144.587 2.65425C141.698 2.69792 143.202 2.49828 144.468 2.47957C147.344 2.50452 150.233 2.52948 149.889 2.67297C150.233 2.52948 153.807 2.53572 156.346 2.50452C153.577 2.45461 155.997 2.37975 156.802 2.33608L160.957 2.47957C156.577 2.52324 161.88 2.60434 160.851 2.70416C159.59 2.85388 156.933 2.77278 154.618 2.75407C159.129 3.01609 160.963 2.61058 164.887 2.73535C164.887 2.80398 164.544 2.87884 162.816 2.86012C163.508 2.90379 166.391 2.73535 169.042 2.81021C168.343 2.76654 166.846 2.63553 169.491 2.57939L172.96 2.74159C176.996 2.77902 174.339 2.56691 177.676 2.49205L175.493 2.37975C175.836 2.23626 179.984 2.37975 180.097 2.22379C178.026 2.22379 176.865 2.34232 174.688 2.29865C173.864 2.14892 177.452 2.21755 178.699 2.13645C183.204 2.20507 182.28 2.20507 185.63 2.32984C185.755 2.56691 180.097 2.62306 180.814 2.93499C185.194 2.89132 191.532 2.81645 194.408 2.91003C198.332 2.84141 197.977 2.64801 197.396 2.51076C199.018 2.48581 199.817 2.51076 200.859 2.54196L199.018 2.61682C203.86 2.54195 206.623 2.46085 211.701 2.46085C214.571 2.41718 213.417 2.27993 212.725 2.16764L215.838 2.14269L215.363 2.11149C216.056 1.96177 218.826 2.01167 220.897 2.01791C220.903 2.08654 219.637 2.09901 219.755 2.14269C221.596 2.19883 224.366 2.18012 225.863 2.11773C225.863 2.14892 225.551 2.20507 224.965 2.2425C224.378 2.27993 223.511 2.30489 222.419 2.28617C222.188 2.2737 222.301 2.24874 222.076 2.23003L218.383 2.31737C222.644 2.23626 225.189 2.40471 225.083 2.56067C229.35 2.47957 221.615 2.39847 226.687 2.33608C233.381 2.64801 239.37 2.24874 243.075 2.69168C246.182 2.5981 249.869 2.44838 254.71 2.4359C254.71 2.30489 257.942 2.38599 257.474 2.22379C252.851 2.04911 248.834 2.47957 245.128 2.23626C243.063 2.29865 243.755 2.41094 242.832 2.47957C240.998 2.49205 239.264 2.47957 239.026 2.39223C243.294 2.31113 240.174 2.07406 245.589 2.06782C244.903 1.95553 240.511 1.9992 238.559 1.968C239.133 1.90562 238.546 1.83699 237.28 1.78709C238.665 1.68103 241.765 1.58745 243.381 1.49387C242.813 1.55626 243.855 1.59369 243.387 1.62488L249.033 1.43772C250.767 1.51883 251.235 1.61864 250.306 1.68727C253.425 1.7247 258.715 1.55002 258.734 1.74965C262.764 1.71846 257.455 1.63112 257.112 1.57497L257.455 1.5625L253.188 1.58121C252.72 1.35038 258.035 1.63736 258.715 1.41901C259.389 1.00102 264.723 1.55002 267.711 1.48763L264.255 1.78709L267.256 1.71846C265.528 1.83699 265.534 2.03039 262.889 2.15516C267.031 2.16764 272.921 2.25498 275.578 2.19883C276.614 2.29865 277.069 2.39847 276.614 2.49828C280.763 2.31113 283.077 2.59186 286.652 2.5981C290.445 2.48581 282.84 2.44838 285.604 2.29865C286.745 2.38599 288.842 2.29241 289.858 2.30489C288.729 2.31113 284.674 2.24874 281.911 2.18636C283.988 2.18636 283.757 2.04287 284.337 1.98048L280.869 1.94929C281.093 1.76837 285.13 1.93681 286.739 1.84323C285.716 2.00544 286.284 2.01167 285.254 2.17388C286.003 2.1614 286.845 2.14892 287.731 2.13645C288.617 2.13021 289.54 2.11149 290.426 2.18012C290.875 2.20507 291.318 2.23003 291.749 2.25498C292.179 2.30489 292.597 2.38599 292.996 2.44838C293.396 2.517 293.783 2.58563 294.138 2.64801C294.494 2.72911 294.818 2.84141 295.118 2.92251C296.521 3.36545 293.907 2.63553 293.103 2.64801C293.764 2.78526 295.972 3.20325 296.484 3.47774C296.253 3.46527 295.816 3.35921 295.317 3.2282C294.812 3.10967 294.257 2.89755 293.751 2.86012C296.534 3.40288 299.216 4.44473 301.631 5.92327C301.612 5.95446 301.157 5.6862 300.545 5.35556C299.915 5.06858 299.142 4.68179 298.543 4.38858C299.684 4.98124 300.701 5.43042 301.693 6.05428C301.949 6.19777 302.205 6.34126 302.467 6.49098C302.735 6.63447 302.978 6.82787 303.246 7.00255C303.515 7.17723 303.789 7.36439 304.082 7.55154C304.226 7.64512 304.376 7.74494 304.532 7.84476C304.675 7.95705 304.819 8.06935 304.968 8.18788C305.23 8.43742 305.505 8.6932 305.767 8.94899C306.041 9.19853 306.297 9.45431 306.522 9.73505C306.983 10.2778 307.42 10.7707 307.751 11.1949C308.362 12.087 308.674 12.5861 308.337 12.218C309.167 13.2599 308.687 12.5112 308.73 12.4676C309.822 14.0896 310.39 15.0254 310.808 15.8177C311.026 16.2107 311.232 16.5538 311.432 16.9406C311.6 17.3399 311.775 17.7766 311.981 18.3318C311.806 17.7579 311.669 17.1652 311.456 16.6037C312.099 18.4192 312.193 18.6188 312.317 18.7561C312.436 18.8933 312.53 18.9869 312.898 20.6526C312.636 20.141 312.548 20.3968 312.554 20.977C312.71 21.2265 312.804 21.8941 312.91 22.6739C312.954 23.0669 313.035 23.4787 313.06 23.8904C313.072 24.3022 313.091 24.7077 313.103 25.0757C313.147 24.6203 313.216 25.4001 313.272 26.0053C313.309 26.6167 313.353 27.0471 313.384 25.8493C313.521 29.2993 313.322 30.9213 313.496 33.4542C313.534 31.8446 313.628 36.4487 313.721 35.0575C313.759 36.7357 313.596 38.1393 313.515 39.0065C313.334 39.8674 313.21 40.1918 313.21 39.7427C313.247 39.4619 313.328 39.1375 313.347 38.8131C313.365 38.4825 313.384 38.1518 313.403 37.8649C313.434 37.2847 313.44 36.8604 313.384 36.9228C313.316 37.921 313.347 38.9254 313.153 39.9111L312.935 41.3959L312.567 42.8495C312.38 43.5732 312.049 44.353 311.781 44.9893C311.644 45.3075 311.525 45.5882 311.419 45.8003C311.307 46.0062 311.201 46.1372 311.145 46.1747C310.976 46.6176 310.733 47.1541 310.458 47.7343C310.165 48.302 309.766 48.8697 309.416 49.4437C309.329 49.5872 309.236 49.7306 309.148 49.8679C309.048 49.9989 308.949 50.1299 308.849 50.2547C308.655 50.5105 308.468 50.76 308.294 50.9908C308.119 51.2279 307.963 51.4463 307.826 51.6521C307.682 51.8518 307.539 52.014 307.439 52.1699C307.769 51.7894 308.038 51.3901 308.3 51.0345C308.562 50.6789 308.818 50.3545 309.055 50.0675C309.498 49.4686 309.822 48.9758 310.04 48.6514L309.585 49.4562C309.654 49.3439 309.735 49.2128 309.841 49.0444C309.647 49.4312 309.485 49.8367 309.254 50.211L308.574 51.3277C310.14 49.3626 308.786 50.9222 310.614 47.909C311.001 47.2477 311.026 47.3163 310.87 47.7468C310.833 47.8528 310.783 47.9901 310.72 48.1336C310.645 48.2771 310.564 48.433 310.471 48.6015C310.29 48.9383 310.078 49.3189 309.872 49.6995C309.678 50.0925 309.435 50.4481 309.217 50.76C309.005 51.0782 308.824 51.3527 308.699 51.5398C308.462 51.9204 308.468 51.9641 308.986 51.3402C309.392 50.8162 309.697 50.4543 309.872 50.1299C310.053 49.8117 310.165 49.5747 310.271 49.3501C310.371 49.1255 310.471 48.9134 310.596 48.6327C310.664 48.4954 310.739 48.3394 310.826 48.1585C310.901 47.9714 310.995 47.7593 311.101 47.5035L310.851 48.015C311.182 47.2602 311.556 46.5303 311.85 45.7629C312.099 44.9831 312.411 44.222 312.617 43.4297C312.673 43.3299 312.661 43.6543 312.561 43.9787C312.461 44.3093 312.355 44.6649 312.355 44.6649C313.322 41.8326 313.571 40.1045 313.746 38.3265C313.914 36.5423 313.902 34.6956 313.927 31.4641C313.896 31.932 313.646 33.1984 313.609 30.3162C313.546 28.2512 313.696 28.0079 313.709 26.286C313.74 27.3154 313.877 28.2387 313.783 29.6237L313.958 29.5114C314.064 31.932 314.158 32.5059 314.233 33.292C314.27 33.685 314.301 34.1404 314.332 34.9015C314.345 35.2821 314.357 35.7437 314.37 36.3114C314.37 36.8854 314.332 37.5841 314.301 38.4201C314.314 38.4949 314.37 38.8693 314.301 39.4183C314.239 39.9735 314.145 40.7221 314.027 41.5768C313.821 42.4128 313.621 43.361 313.328 44.2968C313.16 44.7585 312.991 45.2201 312.823 45.6818C312.735 45.9064 312.654 46.1372 312.567 46.3556C312.461 46.5677 312.361 46.7798 312.255 46.9857C312.392 46.7236 312.561 46.4679 312.679 46.1996L313.041 45.3823C312.898 45.8378 312.798 46.1934 312.692 46.4679C312.573 46.7361 312.486 46.9233 312.417 47.073C312.274 47.36 312.199 47.466 312.112 47.597C311.918 47.8528 311.756 48.2708 310.533 50.3795C310.234 50.7912 309.785 51.2217 309.398 51.6646C308.998 52.0951 308.624 52.5193 308.281 52.7688C307.632 53.3054 307.395 53.3927 308.219 52.3509C307.651 52.9685 307.171 53.4863 306.746 53.9479C306.291 54.3784 305.885 54.7527 305.486 55.127C305.106 55.5201 304.675 55.832 304.213 56.1938C303.746 56.5432 303.259 56.9737 302.598 57.3417C300.913 58.1465 303.278 56.6867 302.872 56.7179C301.069 57.9531 298.568 59.1197 300.09 58.5333C299.46 58.8265 298.836 59.1322 298.168 59.3318L297.183 59.6687L296.69 59.8372C296.521 59.8871 296.353 59.9183 296.184 59.9619C296.122 59.9432 296.465 59.8871 296.864 59.7249C297.27 59.5751 297.757 59.4005 298.025 59.3006C296.54 59.9495 293.508 60.6295 292.603 60.7917C292.94 60.723 293.97 60.5546 294.419 60.4922C294.001 60.592 293.483 60.6669 292.953 60.773C292.423 60.8665 291.874 60.9913 291.362 61.0163C290.339 61.1036 289.503 61.1785 289.384 61.2097C290.657 61.0911 291.356 61.1098 292.067 61.0662C292.423 61.0225 292.778 60.9851 293.215 60.9164C293.433 60.879 293.664 60.8416 293.932 60.7979C294.063 60.773 294.201 60.748 294.35 60.723C294.494 60.6794 294.643 60.6357 294.806 60.5858C294.7 60.6357 294.544 60.7355 294.238 60.8104C293.926 60.8852 293.471 60.9788 292.772 61.0724C293.327 61.0163 293.882 60.9539 294.413 60.8852C294.937 60.7667 295.442 60.6482 295.904 60.5421C296.846 60.3612 297.582 60.068 298.05 59.9744C297.594 60.1117 297.189 60.2551 296.827 60.3862C296.453 60.486 296.128 60.5796 295.848 60.6607C295.286 60.8291 294.899 60.9726 294.712 61.0287C296.397 60.7355 299.591 59.5502 300.545 58.9076C300.62 58.9201 301.051 58.7766 301.568 58.4834C302.086 58.1839 302.722 57.7909 303.296 57.4353C304.388 56.6492 305.199 56.0004 304.369 56.7678C304.432 56.6992 304.6 56.5557 304.837 56.3623C305.074 56.1689 305.393 55.9505 305.686 55.6573C305.991 55.3766 306.322 55.0834 306.64 54.7964C306.958 54.5156 307.264 54.2536 307.483 54.0103C307.52 54.21 305.081 56.487 303.939 57.3667C301.15 59.2383 301.1 59.0948 301.668 58.7329C302.217 58.3337 303.29 57.585 302.604 57.9593L301.518 58.6206C301.15 58.8265 300.764 58.995 300.383 59.1884L299.241 59.7436L298.05 60.1865C298.543 60.0368 296.184 61.035 299.304 59.8684C298.954 60.043 298.505 60.2364 297.981 60.4548C297.463 60.6731 296.877 60.9227 296.228 61.0786C295.579 61.2471 294.912 61.4717 294.219 61.5777C293.527 61.6838 292.834 61.7711 292.179 61.846C291.58 61.9957 293.489 61.6963 294.082 61.6152C293.514 61.7649 290.289 62.4823 294.512 61.8709C293.907 61.952 294.419 61.8709 294.793 61.7399C295.168 61.6027 295.43 61.5216 294.357 61.7212C294.774 61.6526 295.355 61.4717 295.979 61.3282C296.29 61.2533 296.609 61.1722 296.921 61.0974C297.233 61.0163 297.519 60.8977 297.794 60.8166C298.873 60.461 299.553 60.2614 298.711 60.6357C298.954 60.5421 299.223 60.4423 299.51 60.3175C299.784 60.1803 300.077 60.0306 300.383 59.8746C300.988 59.5564 301.662 59.2632 302.261 58.8515C302.866 58.4584 303.484 58.1028 303.989 57.7223C304.488 57.3355 304.931 56.9924 305.268 56.7303C305.711 56.4995 304.151 57.6661 303.446 58.1465C303.883 57.9032 304.257 57.5663 304.656 57.2793C305.049 56.9737 305.449 56.6804 305.836 56.3685L306.927 55.3579C307.295 55.021 307.663 54.6903 307.982 54.3098C307.589 54.7215 307.127 55.0584 306.69 55.4202C308.337 53.9978 309.416 52.5505 310.34 51.1655C310.814 50.4793 311.157 49.7369 311.563 49.0319C311.775 48.6826 311.918 48.2958 312.093 47.9152C312.261 47.5347 312.436 47.1479 312.611 46.7548C312.586 47.0044 312.267 47.7842 311.825 48.7574C311.288 49.6807 310.695 50.8411 310.003 51.7582C310.371 51.3464 310.614 51.0719 310.776 50.8224C310.932 50.5729 311.032 50.367 311.151 50.1237C311.375 49.6246 311.768 49.0194 312.53 47.3725C312.767 46.9482 312.86 46.8484 312.804 47.0855C313.004 46.6488 313.147 46.1871 313.291 45.7192L313.715 44.3405C313.871 43.9475 313.877 43.8539 313.883 43.9163C313.883 43.9787 313.84 44.1845 313.777 44.3592C314.351 41.9511 314.251 41.9636 314.258 41.7827C314.258 41.6953 314.258 41.5456 314.326 41.0216C314.357 40.7596 314.407 40.3977 314.47 39.9049C314.501 39.6553 314.551 39.3746 314.576 39.0502C314.588 38.7258 314.601 38.3577 314.619 37.9522C314.164 41.8638 314.395 41.3148 313.49 44.5277C313.297 44.9706 313.266 44.9644 313.341 44.6899C313.378 44.5526 313.434 44.353 313.515 44.1034C313.571 43.8477 313.634 43.5544 313.709 43.23C313.833 42.5875 314.046 41.87 314.114 41.2337C314.189 40.5974 314.251 40.0671 314.27 39.83C314.432 39.0439 314.439 38.4201 314.501 37.8773C314.551 37.3346 314.619 36.8542 314.651 36.3676C314.701 35.4006 314.732 34.3338 314.663 32.3749C314.744 35.1386 314.819 32.4872 314.825 36.405C314.825 37.5342 314.85 37.241 314.906 36.5922C314.931 35.9683 314.95 35.0201 315 34.7892C314.969 33.7536 314.819 35.4817 314.85 32.5995L314.875 32.7118L314.694 27.9954C314.694 27.4464 314.707 26.8787 314.713 26.3047C314.701 25.7183 314.657 25.1007 314.619 24.4956L314.563 23.5785L314.414 22.6739C314.301 22.075 314.233 21.4698 314.089 20.8897C313.765 19.7417 313.515 18.625 313.116 17.6643C312.941 17.1777 312.773 16.7098 312.617 16.2731C312.43 15.8551 312.255 15.4621 312.112 15.1002L312.261 15.8239C311.675 14.5325 310.826 13.0353 309.891 11.7252C309.647 11.407 309.41 11.0888 309.179 10.7831C308.949 10.4774 308.73 10.178 308.481 9.92845C308 9.41688 307.576 8.95522 307.233 8.58715C307.426 8.7244 307.844 9.14238 308.387 9.71009C308.524 9.85358 308.668 10.0033 308.818 10.1655C308.949 10.3402 309.092 10.5149 309.236 10.702C309.523 11.0763 309.828 11.4694 310.134 11.8686C308.699 9.74129 306.952 8.05063 305.262 6.66566C304.363 6.0418 303.552 5.38051 302.673 4.93133C302.248 4.68803 301.83 4.4572 301.431 4.23261C301.019 4.03298 300.601 3.86454 300.215 3.68986C301.319 4.25757 301.893 4.68179 302.467 5.05611C302.754 5.2495 303.047 5.42418 303.371 5.66125C303.683 5.91079 304.045 6.20401 304.5 6.56585C303.147 5.64877 302.317 5.18088 301.419 4.55702C300.969 4.25757 300.452 4.00802 299.828 3.68362C299.216 3.33426 298.43 3.066 297.432 2.72911C297.376 2.52324 298.699 3.0348 297.757 2.51076C296.921 2.21755 295.754 1.99296 294.581 1.70598C293.988 1.59993 293.377 1.53754 292.797 1.45644C292.504 1.41901 292.223 1.38782 291.948 1.35038C291.674 1.35038 291.406 1.35038 291.156 1.34415C290.083 1.18818 292.03 0.801388 296.315 1.91186C297.9 2.42966 299.535 3.066 301.044 3.80839C301.431 3.97059 301.787 4.19518 302.136 4.40105C302.485 4.61317 302.835 4.81904 303.172 5.01868C303.515 5.21207 303.814 5.44914 304.107 5.67997C304.401 5.90455 304.681 6.12914 304.943 6.3475L303.664 5.26198C304.338 5.75483 304.95 6.20401 305.517 6.61575C306.041 7.08365 306.534 7.52659 307.015 7.95081C307.258 8.15669 307.482 8.38751 307.695 8.62458C307.913 8.85541 308.125 9.09247 308.35 9.3233C308.568 9.56037 308.793 9.79743 309.023 10.047C309.229 10.309 309.448 10.5835 309.666 10.8642L309.579 10.7894L310.577 11.8437L309.641 10.5897C309.997 10.9952 310.739 11.8 311.307 12.7171C311.606 13.1663 311.918 13.603 312.149 14.0022C312.361 14.414 312.542 14.7571 312.648 14.9755C312.149 13.8588 311.6 13.0914 311.188 12.4613C310.789 11.8187 310.396 11.4008 310.065 11.0327C309.735 10.6771 309.454 10.3714 309.154 10.0595C308.836 9.76624 308.506 9.45431 308.094 9.06752C307.395 8.24403 306.709 7.63888 306.129 7.07117C305.567 6.48474 304.993 6.06676 304.482 5.6363C304.226 5.42418 303.976 5.22455 303.727 5.02491C303.465 4.84399 303.203 4.68179 302.935 4.50711C302.66 4.34491 302.392 4.17647 302.105 4.00802C301.818 3.83958 301.525 3.67114 301.182 3.54013C301.013 3.36545 298.848 2.23003 300.639 3.00985C301.762 3.47774 302.61 4.07665 303.265 4.46968C303.926 4.85023 304.295 5.17464 304.426 5.19336C303.92 4.80032 303.565 4.58197 303.278 4.40729C303.003 4.22637 302.797 4.1016 302.56 3.94564C302.323 3.79591 302.055 3.60875 301.618 3.37169C301.169 3.15334 300.564 2.86636 299.684 2.44214C299.322 2.34232 298.43 2.12397 297.32 1.78709C296.765 1.61864 296.116 1.5313 295.467 1.38782C295.136 1.32543 294.806 1.24433 294.469 1.18818L293.439 1.07589C292.722 0.988546 291.961 0.857536 291.169 0.857536C290.389 0.83882 289.553 0.763957 288.81 0.788911C287.294 0.788911 285.853 0.776434 284.749 0.757718C287.513 0.739003 290.289 0.601754 289.596 0.495698C287.962 0.632946 284.175 0.364687 284.986 0.576799C281.761 0.564322 276.333 0.570561 275.984 0.377164C279.035 0.30854 281.992 0.420834 284.581 0.377164C283.869 0.377164 283.171 0.327256 283.589 0.283585L287.4 0.302301C284.518 0.208722 285.092 0.152575 281.399 0.171291C281.63 0.183768 282.098 0.214961 281.748 0.227438C280.831 0.227438 279.671 0.227438 278.748 0.227438L278.635 0.0527577C275.872 0.133859 270.556 -0.0844913 265.491 0.0402805L265.946 0.00284894C261.91 -0.0345826 261.573 0.30854 257.187 0.345971C258.453 0.26487 257.873 0.196245 257.649 0.108905C255.465 0.196245 254.299 0.0527577 252.109 0.00908753C254.654 0.108905 250.393 0.190007 252.24 0.246154C252.365 0.420834 247.86 0.420834 245.552 0.402119C244.173 0.177529 252.701 0.277347 249.233 0.0527577C246.931 0.0340419 246.351 0.158814 247.973 0.202484C245.09 0.177529 240.705 0.152575 238.621 0.0153261C235.171 0.183768 233.792 0.0901892 231.603 0.30854C233.449 0.296063 233.555 0.140098 235.87 0.227438L233.337 0.389642C229.993 0.402119 227.335 0.258631 225.033 0.239915L227.454 0.171291L227.335 0.196245C228.259 0.127621 231.372 0.165052 231.022 0.0465191C228.839 0.196245 227.098 0.0465191 224.222 0.158814L224.335 0.133859C219.269 0.258631 215.563 -0.115684 212.35 0.202484C213.274 0.202484 215.126 0.321017 214.546 0.377164C213.386 0.302301 210.279 0.327256 210.385 0.233677L211.427 0.202484C208.545 0.177529 206.81 0.165052 205.769 0.190007C204.97 0.302301 205.787 0.389642 203.704 0.452027C198.625 0.383403 205.769 0.190007 202.312 0.0964278L197.583 0.214961L196.542 0.115144C189.517 0.0153261 184.096 0.35221 176.603 0.35221C176.485 0.177529 181.9 0.108905 183.746 0.0964278C181.438 -0.0532984 178.1 0.152575 174.987 0.0465191C172.099 0.0215647 169.922 0.171291 170.377 0.271108C166.809 0.333494 167.838 0.171291 167.382 0.140098C166.222 0.327256 161.73 0.258631 158.854 0.302301L158.723 0.196245L154.232 0.327256C155.386 0.339733 154.35 0.433312 154.35 0.501936L153.202 0.489459C157.594 0.776434 163.109 0.283586 167.62 0.614231C166.241 0.657901 168.087 0.70781 166.702 0.75148C165.555 0.739003 165.324 0.726525 165.205 0.682855C164.513 0.770196 162.672 0.845059 165.099 0.83882C164.987 1.06341 160.139 1.00726 156.802 1.08213C154.144 0.938637 159.566 0.870013 160.944 0.763957C159.678 0.782673 158.636 0.876252 156.796 0.820104L157.245 0.651662C152.641 0.745241 155.985 0.79515 154.949 0.963592C153.695 1.1757 150.8 0.951115 149.534 0.963592L150.913 0.919922C147.344 0.851297 146.533 1.02598 143.314 1.0135L141.804 0.88249C145.853 1.05093 146.751 0.651662 149.066 0.732764C143.183 0.576799 150.332 0.389642 152.167 0.246154C149.627 0.277347 147.325 0.258631 145.94 0.165052C142.247 0.383403 138.205 0.0839506 134.642 0.345971C132.683 0.314778 136.364 0.227438 134.287 0.2212C130.481 0.202484 126.445 0.233677 122.415 0.327256C120.331 0.327256 120.687 0.246154 120.106 0.177529C110.075 0.077712 106.157 0.476982 95.202 0.383403L96.8116 0.289824C94.5095 0.271108 92.5444 0.239915 91.4027 0.358449C88.508 0.0714734 81.6019 0.539368 77.9086 0.227438C73.0613 0.171291 72.8367 0.420834 69.0311 0.464505C69.0311 0.39588 70.1853 0.277347 68.2201 0.246154C55.7741 0.302301 44.5883 0.358449 30.8697 0.420834C30.982 0.39588 31.6744 0.377164 32.0176 0.364687C29.7904 0.364687 27.6069 0.35221 25.3797 0.408357C24.2318 0.48322 23.0839 0.501936 21.9672 0.732764C21.412 0.83882 20.8443 0.888729 20.3015 1.03845C19.7587 1.18194 19.2222 1.33167 18.6857 1.47516C18.1429 1.59993 17.6314 1.81828 17.1198 2.00544C16.6083 2.20507 16.0905 2.37975 15.5976 2.60434C15.111 2.84141 14.6306 3.07847 14.1565 3.31554C13.9194 3.43407 13.6761 3.54013 13.4453 3.67738L12.7715 4.08913C12.3286 4.36362 11.8856 4.63812 11.4427 4.90638C11.031 5.21207 10.6192 5.51776 10.2199 5.81721C9.38397 6.39117 8.68525 7.09613 7.95533 7.72622C7.68083 7.96329 7.32523 8.38128 6.93844 8.83045C6.56413 9.28587 6.10871 9.73505 5.80302 10.1967C5.16668 11.0951 4.76117 11.7252 5.20411 11.2261C6.27715 9.78496 6.58908 9.73505 6.5766 9.8723C4.49291 12.5362 4.18098 13.3285 3.80667 13.7465C3.45107 14.1769 3.28263 14.3953 2.33436 16.4665C1.99748 17.1091 2.15344 16.3979 2.54023 15.5806C2.90207 14.7509 3.33877 13.7527 3.28263 13.7215C2.29693 15.7116 1.436 17.7704 0.993065 19.9476C0.88077 20.403 0.718567 20.846 0.656181 21.3076C0.581318 21.7693 0.512693 22.2309 0.43783 22.6864C0.256911 23.5972 0.275627 24.5267 0.219479 25.4251C0.157094 26.3484 0.200764 27.1657 0.188287 28.0016C0.188287 28.8314 0.169571 29.6362 0.144616 30.416C0.169571 29.031 -0.0238255 29.9668 0.0635147 27.6523C0.0759919 28.0016 0.0884691 27.7708 0.100946 28.1202C0.100946 26.7976 0.100946 25.9554 0.132139 25.3128C0.150855 24.6889 0.157094 24.3271 0.157094 23.9902C0.144616 23.6471 0.175809 23.3227 0.238195 22.7799C0.275627 22.5054 0.313058 22.181 0.369206 21.7631C0.400399 21.5572 0.431591 21.3263 0.462784 21.0706C0.506455 20.8148 0.587556 20.5465 0.656181 20.2408C0.593795 20.5091 0.518932 20.7774 0.462784 21.0581C0.425353 21.3388 0.381683 21.632 0.338013 21.919C0.26315 22.5054 0.157094 23.1043 0.100946 23.7157C0.0510375 24.9447 -0.0238255 26.2486 0.00736741 27.4152C0.0198446 29.8046 0.0260832 32.1441 0.00736741 33.9907C0.175809 33.1922 0.0323218 36.9478 0.244434 38.0894V38.3327C0.244434 38.3327 0.281865 38.4825 0.30682 38.7133C0.325535 38.9504 0.362967 39.2685 0.43783 39.6054C0.562602 40.2854 0.699851 41.0528 0.762237 41.4146C0.731044 41.7453 0.774714 42.0634 0.787191 42.3941C1.23637 44.0348 0.762237 41.9075 1.20518 43.5357C1.32995 44.1222 1.72298 45.033 2.10977 46.1123C2.29069 46.655 2.60886 47.1915 2.86464 47.7655C3.00189 48.0462 3.13914 48.3332 3.27639 48.6202C3.42611 48.9009 3.6008 49.1692 3.75676 49.4374C4.08741 49.9739 4.38062 50.5167 4.70503 50.9846C5.04191 51.4525 5.3476 51.883 5.61586 52.2573C5.74687 52.4444 5.87164 52.6254 5.98394 52.7813C6.10247 52.931 6.21476 53.0683 6.30834 53.1806C6.4955 53.4114 6.61403 53.5736 6.64523 53.6485C7.59973 54.7527 8.3546 55.3204 9.07204 55.9443C9.4214 56.2687 9.82067 56.5369 10.2636 56.8551C10.482 57.0173 10.719 57.192 10.9748 57.3792C11.2306 57.5663 11.4988 57.7784 11.8233 57.9656C11.58 57.9032 10.9873 57.4852 10.8875 57.4353C13.4765 59.3194 16.7767 60.8603 20.2329 61.6152C21.0876 61.821 21.9672 61.9084 22.8281 62.0519C23.6891 62.1642 24.5562 62.1642 25.3984 62.2265C27.0454 62.2702 28.5676 62.264 30.0212 62.3014C34.7376 62.2515 38.774 62.2203 41.7622 62.0893C40.4958 62.1018 36.8026 62.0581 39.1109 61.9458C40.3773 61.8647 42.3362 61.8959 44.2951 61.8585C43.8397 61.9583 49.261 61.952 45.3432 62.0269C46.3289 62.2515 53.7903 61.9832 53.7279 62.2016C54.6449 62.133 60.2098 62.1704 62.2934 62.0519C62.7551 62.1454 59.2864 62.1205 59.2927 62.1829L61.8256 62.1517V62.2203C66.6792 62.2765 67.5838 62.0082 70.466 61.9645L70.3537 61.9895L72.3126 61.952L70.0168 62.133C73.1236 62.108 74.7332 61.952 78.1956 61.9146L78.5387 61.9708L80.6224 61.9084C80.2668 61.9209 80.1545 61.9458 80.3791 61.9583C82.3443 61.7898 86.8361 61.8585 88.6765 61.715C90.0614 61.7399 91.228 61.952 93.0684 61.8086L92.7253 62.0144C88.115 62.0394 91.0034 61.8647 86.1561 61.9458C89.737 62.2141 99.7687 62.1829 106.456 62.1642C111.865 62.0269 120.755 62.2515 123.057 61.9396L122.483 62.0643L131.585 62.1704C139.315 62.1205 147.269 62.2141 153.152 62.0394L154.768 62.1454C160.863 61.7898 175.518 61.9957 179.542 61.5715C182.998 61.6651 178.506 61.7337 178.157 61.8086C180.702 61.846 184.957 61.5653 187.383 61.7586C187.383 61.8273 183.809 61.821 185.424 61.8585C187.271 61.9832 188.07 61.7337 190.153 61.8709C189.23 61.7462 193.497 61.5964 196.598 61.5715C196.215 61.5715 195.943 61.5653 195.781 61.5528C195.331 61.453 197.64 61.4779 198.906 61.4592C198.906 61.4592 198.788 61.4841 198.444 61.4966C214.459 61.3344 232.788 61.2533 249.626 61.3781L246.525 61.4717C248.946 61.403 253.219 61.453 254.592 61.4717L254.242 61.4841C258.74 61.6838 259.314 61.2908 262.783 61.5216L262.097 61.5403C267.518 61.5403 270.737 61.7462 276.04 61.6339C280.201 61.7087 279.74 61.8086 282.628 61.9021C285.049 61.9021 286.184 61.7774 286.309 61.7524L285.148 61.7399C283.882 61.6214 287.687 61.6464 289.409 61.5902C288.143 61.4093 288.823 61.1223 283.975 60.9352C280.407 60.9975 280.507 60.6419 276.477 60.6731C274.175 60.9164 270.706 60.4922 267.025 60.7106C268.984 60.5421 262.64 60.617 265.859 60.4361C264.355 60.3051 258.029 60.5796 255.134 60.4236C255.602 60.3862 255.49 60.3487 256.176 60.3238C252.14 60.4236 253.406 60.2052 250.412 60.2052L250.524 60.3799C249.37 60.4361 249.021 60.3113 247.985 60.3425C248.802 60.3612 250.524 60.4423 249.613 60.5172C248.228 60.5608 247.074 60.617 245.577 60.617C245.558 60.5484 246.6 60.5234 247.305 60.4985C247.305 60.4985 244.067 60.486 243.836 60.4049C244.991 60.3487 246.488 60.3487 247.511 60.2551C243.25 60.2052 247.168 60.199 245.097 60.0618C245.677 60.2676 241.403 60.1491 239.108 60.1928C238.87 60.1117 240.723 60.1678 241.291 60.1054C236.899 59.7498 234.716 60.1678 229.07 60.0929C229.182 60.068 229.874 60.0493 230.224 60.0368C227.566 60.0929 225.713 59.9058 223.991 60.0243C221.446 59.9869 223.524 59.7935 219.606 59.7997C220.76 60.0056 214.989 59.7623 214.889 59.9806L211.882 59.8496C209.225 59.9744 212.594 60.224 207.397 60.2489C202.668 60.1678 207.846 59.8808 205.082 59.7685L203.928 59.8933L201.62 59.806L201.969 59.7935C201.277 59.8122 200.297 59.8122 199.493 59.806C198.688 59.7997 198.051 59.7685 198.045 59.7373C198.27 59.6874 199.779 59.6874 199.992 59.6375C197.696 59.7498 190.889 59.3318 188.475 59.6687C187.115 59.6063 184.314 59.6126 184.67 59.5065C183.434 59.6562 178.531 59.4628 176.703 59.5564C176.94 59.5065 175.206 59.4254 173.821 59.4628C175.674 59.519 174.513 59.5751 173.253 59.6562C171.625 59.5502 167.021 59.6438 166.322 59.4628C163.783 59.5627 164.712 59.6874 164.151 59.8122C162.523 59.7062 157.332 59.7249 158.249 59.5252C159.64 59.5502 162.753 59.5876 162.167 59.4566C159.516 59.3817 161.019 59.5128 158.836 59.5315C158.998 59.494 157.351 59.4067 157.769 59.3443C156.477 59.3693 154.674 59.363 152.834 59.3318C155.71 59.4254 150.994 59.4753 152.722 59.5564L155.486 59.4067C158.836 59.3942 156.184 59.519 157.457 59.5689C151.574 59.6126 152.734 59.8184 147.207 59.912C146.171 59.8808 144.325 59.8309 143.744 59.8185C145.591 59.806 145.236 59.6188 144.187 59.5876C141.093 59.7436 138.654 59.4878 136.115 59.4504C138.311 59.494 137.157 59.6188 136.352 59.6625C131.055 59.7748 134.274 59.5939 131.96 59.5065C123.787 59.5252 118.584 59.2819 112.021 59.4129L115.134 59.5876L116.17 59.4254C118.597 59.5502 115.721 59.7935 114.342 59.8995C113.993 59.8434 109.95 59.8746 111.566 59.781L107.642 59.8496C108.228 59.9183 110.761 59.8933 108.933 59.9682C107.642 59.9183 103.618 59.8808 106.151 59.7873C104.08 59.7873 101.428 59.8372 101.89 59.937C98.5521 59.9495 102.233 59.7311 103.724 59.6625C101.079 59.65 101.416 59.5128 102.22 59.4628L98.5397 59.4816C99.3444 59.4379 99.3444 59.3693 100.143 59.3256C97.7224 59.2632 95.9943 59.4441 93.9231 59.3131L92.9998 59.4504C86.312 59.3381 86.9983 59.3194 80.7659 59.3006L81.8078 59.4005C77.0914 59.5814 78.3516 59.2383 72.0069 59.3131C68.4385 59.3755 66.1239 59.4192 66.5981 59.5814C64.5331 59.6438 64.059 59.5439 63.1294 59.4816C61.5199 59.5751 58.0699 59.7436 55.5308 59.6375C57.2589 59.5939 58.6376 59.5627 60.2534 59.519C59.7855 59.3568 54.7198 59.4816 52.0684 59.4067C50.2218 59.4753 44.2265 59.6999 40.8888 59.8247C42.3986 59.9557 41.8246 60.1491 38.8301 60.2801C39.2918 60.1803 34.7875 60.1803 32.7225 60.1054C33.7457 60.0118 28.0997 59.8684 32.473 59.8247C33.7394 59.8746 34.3259 60.0118 36.0539 59.9619C35.0121 59.8621 32.2359 59.7436 29.3537 59.65C29.5783 59.6001 31.0818 59.5315 32.579 59.5315C31.7618 59.5751 32.2359 59.6063 32.3545 59.65L32.2796 59.6188Z" fill="url(#paint0_linear_111_1672)"/>
<defs>
<linearGradient id="paint0_linear_111_1672" x1="0" y1="31.1507" x2="315" y2="31.1507" gradientUnits="userSpaceOnUse">
<stop stop-color="#D9A47B"/>
<stop offset="0.5" stop-color="#C5A753"/>
<stop offset="1" stop-color="#E3C362"/>
</linearGradient>
</defs>
</svg>
