<svg width="19" height="21" viewBox="0 0 19 21" fill="none" xmlns="http://www.w3.org/2000/svg">
<g id="logout">
<path id="Vector" d="M3.73566 11.3472C3.60524 11.2166 3.53198 11.0396 3.53198 10.855C3.53198 10.6705 3.60524 10.4934 3.73566 10.3629L5.59282 8.5057C5.72485 8.38268 5.89946 8.3157 6.07989 8.31889C6.26031 8.32207 6.43246 8.39516 6.56006 8.52276C6.68766 8.65036 6.76075 8.82251 6.76393 9.00293C6.76711 9.18336 6.70014 9.35797 6.57712 9.48999L5.90854 10.1586H12.5851C12.7698 10.1586 12.9469 10.2319 13.0775 10.3626C13.2081 10.4932 13.2815 10.6703 13.2815 10.855C13.2815 11.0397 13.2081 11.2169 13.0775 11.3475C12.9469 11.4781 12.7698 11.5514 12.5851 11.5514H5.90854L6.57712 12.22C6.64555 12.2838 6.70043 12.3607 6.73849 12.4461C6.77656 12.5315 6.79703 12.6238 6.79868 12.7173C6.80033 12.8108 6.78312 12.9037 6.7481 12.9904C6.71307 13.0771 6.66093 13.1559 6.5948 13.222C6.52867 13.2881 6.44989 13.3403 6.36318 13.3753C6.27646 13.4103 6.18357 13.4275 6.09006 13.4259C5.99655 13.4242 5.90433 13.4038 5.8189 13.3657C5.73347 13.3276 5.65658 13.2728 5.59282 13.2043L3.73566 11.3472Z" fill="#000A32"/>
<path id="Vector_2" fill-rule="evenodd" clip-rule="evenodd" d="M11.6051 0.872772H12.6359C13.9062 0.872772 14.9295 0.872772 15.7346 0.981416C16.5703 1.09285 17.2741 1.33428 17.8332 1.89236C18.3922 2.45136 18.6317 3.15523 18.745 3.99096C18.8527 4.79604 18.8527 5.82026 18.8527 7.08964V14.6204C18.8527 15.8898 18.8527 16.9141 18.745 17.7191C18.6327 18.5549 18.3922 19.2587 17.8332 19.8177C17.2741 20.3767 16.5703 20.6163 15.7346 20.7296C14.9295 20.8373 13.9052 20.8373 12.6359 20.8373H11.6051C10.3358 20.8373 9.31154 20.8373 8.50646 20.7296C7.67074 20.6163 6.96687 20.3767 6.40786 19.8177C6.03829 19.4463 5.80707 19.0117 5.66035 18.5159C4.77727 18.5149 4.0409 18.5047 3.44475 18.4249C2.73532 18.3292 2.12059 18.1231 1.62937 17.6318C1.13815 17.1406 0.932007 16.5268 0.836363 15.8165C0.745361 15.1386 0.745361 14.2787 0.745361 13.2257V8.48437C0.745361 7.43228 0.745361 6.57335 0.836363 5.89362C0.932007 5.18511 1.13815 4.57039 1.62937 4.07917C2.12059 3.58795 2.73439 3.3818 3.44475 3.28616C4.0409 3.2063 4.77727 3.19609 5.66035 3.19516C5.80707 2.6993 6.03829 2.26379 6.40879 1.89329C6.96687 1.33428 7.67167 1.0947 8.50739 0.982345C9.31154 0.873701 10.3358 0.873701 11.6051 0.873701M5.39014 15.5017C5.39385 16.1006 5.40314 16.6392 5.43656 17.1221C4.66213 17.1193 4.0864 17.1053 3.63047 17.0441C3.07518 16.9698 2.80403 16.836 2.6146 16.6466C2.42517 16.4572 2.29145 16.186 2.21717 15.6307C2.14009 15.056 2.13824 14.2908 2.13824 13.1765V8.53359C2.13824 7.41928 2.14009 6.65413 2.21717 6.07934C2.29145 5.52405 2.42517 5.2529 2.6146 5.06347C2.80403 4.87404 3.07518 4.74032 3.63047 4.66604C4.0864 4.60475 4.66213 4.59175 5.43749 4.58803C5.40314 5.0709 5.39385 5.60948 5.39014 6.20841C5.38915 6.39312 5.46158 6.57065 5.59149 6.70196C5.7214 6.83326 5.89815 6.90758 6.08286 6.90856C6.26757 6.90955 6.4451 6.83712 6.5764 6.70721C6.70771 6.5773 6.78203 6.40055 6.78301 6.21584C6.78858 5.2009 6.81458 4.48125 6.91487 3.93431C7.01237 3.40873 7.16744 3.10323 7.39309 2.87758C7.65031 2.62037 8.01153 2.45322 8.69311 2.36129C9.39419 2.2675 10.3237 2.26565 11.6562 2.26565H12.5848C13.9182 2.26565 14.8478 2.2675 15.5488 2.36129C16.2304 2.45322 16.5907 2.62129 16.8489 2.87758C17.1051 3.1348 17.2723 3.49509 17.3642 4.1776C17.4589 4.87775 17.4599 5.80819 17.4599 7.14071V14.5694C17.4599 15.9019 17.4589 16.8314 17.3642 17.5334C17.2723 18.215 17.1051 18.5753 16.8479 18.8325C16.5907 19.0897 16.2304 19.2569 15.5488 19.3488C14.8478 19.4426 13.9182 19.4444 12.5848 19.4444H11.6562C10.3237 19.4444 9.39419 19.4426 8.69218 19.3488C8.01153 19.2569 7.65031 19.0888 7.39309 18.8325C7.16744 18.6059 7.01237 18.3014 6.91487 17.7758C6.81458 17.2288 6.78858 16.5092 6.78301 15.4942C6.78252 15.4028 6.76403 15.3123 6.72858 15.228C6.69313 15.1437 6.64142 15.0672 6.5764 15.0029C6.51139 14.9386 6.43434 14.8877 6.34966 14.8531C6.26497 14.8186 6.17432 14.801 6.08286 14.8015C5.9914 14.802 5.90094 14.8205 5.81663 14.856C5.73232 14.8914 5.65582 14.9431 5.59149 15.0081C5.52717 15.0731 5.47628 15.1502 5.44173 15.2349C5.40718 15.3196 5.38965 15.4102 5.39014 15.5017Z" fill="#000A32"/>
</g>
</svg>
