<svg xmlns="http://www.w3.org/2000/svg" width="36" height="27" viewBox="0 0 36 27" fill="none">
<path d="M32.625 27H3.375C1.5075 27 0 25.4925 0 23.625V3.375C0 1.5075 1.5075 0 3.375 0H32.625C34.4925 0 36 1.5075 36 3.375V23.625C36 25.4925 34.4925 27 32.625 27ZM3.375 2.25C2.745 2.25 2.25 2.745 2.25 3.375V23.625C2.25 24.255 2.745 24.75 3.375 24.75H32.625C33.255 24.75 33.75 24.255 33.75 23.625V3.375C33.75 2.745 33.255 2.25 32.625 2.25H3.375Z" fill="url(#paint0_linear_106_1381)"/>
<path d="M17.9997 17.9099C16.4247 17.9099 14.9847 17.2799 13.9047 16.1324L2.09221 3.5774C1.66471 3.1274 1.68721 2.4074 2.13721 1.9799C2.58721 1.5524 3.30721 1.5749 3.73471 2.0249L15.5472 14.5799C16.8297 15.9524 19.1697 15.9524 20.4522 14.5799L32.2647 2.0474C32.6922 1.5974 33.4122 1.5749 33.8622 2.0024C34.3122 2.4299 34.3347 3.1499 33.9072 3.5999L22.0947 16.1549C21.0147 17.3024 19.5747 17.9324 17.9997 17.9324V17.9099Z" fill="url(#paint1_linear_106_1381)"/>
<defs>
<linearGradient id="paint0_linear_106_1381" x1="0" y1="13.5" x2="36" y2="13.5" gradientUnits="userSpaceOnUse">
<stop stop-color="#D9A47B"/>
<stop offset="0.5" stop-color="#C5A753"/>
<stop offset="1" stop-color="#E3C362"/>
</linearGradient>
<linearGradient id="paint1_linear_106_1381" x1="1.78516" y1="9.80263" x2="34.2143" y2="9.80263" gradientUnits="userSpaceOnUse">
<stop stop-color="#D9A47B"/>
<stop offset="0.5" stop-color="#C5A753"/>
<stop offset="1" stop-color="#E3C362"/>
</linearGradient>
</defs>
</svg>