<svg width="29" height="25" viewBox="0 0 29 25" fill="none" xmlns="http://www.w3.org/2000/svg">
<path d="M14.5 7.35294C18.3158 7.35294 21.3684 10.2941 21.3684 13.9706C21.3684 17.6471 18.3158 20.5882 14.5 20.5882C10.6842 20.5882 7.63158 17.6471 7.63158 13.9706C7.63158 10.2941 10.6842 7.35294 14.5 7.35294ZM14.5 8.82353C13.0832 8.82353 11.7244 9.36581 10.7226 10.3311C9.72072 11.2963 9.1579 12.6055 9.1579 13.9706C9.1579 15.3357 9.72072 16.6448 10.7226 17.6101C11.7244 18.5754 13.0832 19.1176 14.5 19.1176C15.9168 19.1176 17.2756 18.5754 18.2774 17.6101C19.2793 16.6448 19.8421 15.3357 19.8421 13.9706C19.8421 12.6055 19.2793 11.2963 18.2774 10.3311C17.2756 9.36581 15.9168 8.82353 14.5 8.82353ZM4.57895 2.94118H7.63158L10.6842 0H18.3158L21.3684 2.94118H24.4211C25.6355 2.94118 26.8001 3.40599 27.6589 4.23335C28.5176 5.06072 29 6.18287 29 7.35294V20.5882C29 21.7583 28.5176 22.8805 27.6589 23.7078C26.8001 24.5352 25.6355 25 24.4211 25H4.57895C3.36454 25 2.19986 24.5352 1.34114 23.7078C0.482424 22.8805 0 21.7583 0 20.5882V7.35294C0 6.18287 0.482424 5.06072 1.34114 4.23335C2.19986 3.40599 3.36454 2.94118 4.57895 2.94118ZM11.31 1.47059L8.25737 4.41176H4.57895C3.76934 4.41176 2.99289 4.72164 2.42041 5.27322C1.84793 5.82479 1.52632 6.57289 1.52632 7.35294V20.5882C1.52632 21.3683 1.84793 22.1164 2.42041 22.668C2.99289 23.2195 3.76934 23.5294 4.57895 23.5294H24.4211C25.2307 23.5294 26.0071 23.2195 26.5796 22.668C27.1521 22.1164 27.4737 21.3683 27.4737 20.5882V7.35294C27.4737 6.57289 27.1521 5.82479 26.5796 5.27322C26.0071 4.72164 25.2307 4.41176 24.4211 4.41176H20.7426L17.69 1.47059H11.31Z" fill="#000A32"/>
</svg>
